<?xml version="1.0" encoding="utf-8"?>
<!DOCTYPE svg PUBLIC "-//W3C//DTD SVG 20010904//EN" "http://www.w3.org/TR/2001/REC-SVG-20010904/DTD/svg10.dtd">
<svg version="1.0" xmlns="http://www.w3.org/2000/svg" width="602pt" height="602pt" viewBox="0 0 602 602" style="" preserveAspectRatio="xMidYMid meet">
<g fill="#53585DFF" stroke="#53585DFF">
<path d="M 276.381 332.055 C 258.235 332.846 240.391 334.873 222.769 338.148 C 216.867 339.244 211.579 339.858 211.019 339.512 C 210.459 339.165 210.000 339.322 210.000 339.861 C 210.000 341.107 196.258 344.278 194.790 343.370 C 194.173 342.989 193.972 343.146 194.333 343.730 C 194.713 344.345 193.042 345.253 190.238 345.955 C 176.605 349.370 151.937 359.855 137.500 368.371 C 133.650 370.642 130.050 372.561 129.500 372.635 C 128.950 372.709 128.696 372.821 128.935 372.885 C 129.174 372.948 126.249 375.207 122.435 377.904 C 118.621 380.601 115.093 382.557 114.595 382.250 C 114.098 381.942 113.981 382.160 114.336 382.734 C 114.690 383.308 113.297 385.030 111.240 386.560 C 107.780 389.134 87.677 409.000 88.533 409.000 C 88.742 409.000 86.407 412.488 83.343 416.750 C 80.280 421.013 77.386 425.513 76.912 426.750 C 76.438 427.988 75.513 429.000 74.858 429.000 C 74.203 429.000 73.946 429.280 74.288 429.622 C 74.630 429.964 73.866 432.326 72.590 434.872 C 69.173 441.690 64.277 456.499 62.796 464.500 C 61.846 469.629 61.500 484.732 61.500 521.000 L 61.500 570.500 301.000 570.500 L 540.500 570.500 540.500 521.000 C 540.500 484.762 540.154 469.675 539.210 464.687 C 537.658 456.494 532.661 441.259 529.431 434.872 C 528.143 432.326 527.370 429.964 527.712 429.622 C 528.054 429.280 527.817 429.000 527.187 429.000 C 526.557 429.000 525.179 427.313 524.126 425.250 C 523.072 423.188 520.139 418.688 517.607 415.250 C 515.076 411.813 513.194 409.000 513.426 409.000 C 514.311 409.000 494.320 389.208 490.760 386.560 C 488.703 385.030 487.310 383.308 487.664 382.734 C 488.019 382.160 487.902 381.942 487.405 382.250 C 486.907 382.557 483.379 380.601 479.565 377.904 C 475.751 375.207 472.826 372.948 473.065 372.885 C 473.304 372.821 473.050 372.709 472.500 372.635 C 471.950 372.561 471.275 372.059 471.000 371.519 C 470.725 370.980 470.050 370.530 469.500 370.519 C 468.950 370.509 464.450 368.264 459.500 365.531 C 447.745 359.041 435.839 353.951 419.647 348.494 C 412.416 346.058 406.725 343.996 407.000 343.914 C 407.275 343.831 407.113 343.833 406.639 343.919 C 406.166 344.004 402.116 343.164 397.639 342.052 C 375.715 336.604 350.725 333.271 322.274 332.000 C 310.298 331.464 298.925 331.090 297.000 331.168 C 295.075 331.246 285.796 331.645 276.381 332.055 "/></g>
<g fill="#53585DFF" stroke="#53585DFF">
<path d="M 287.929 32.073 C 277.060 32.974 265.536 35.691 253.652 40.155 C 249.168 41.839 244.600 43.355 243.500 43.525 C 242.400 43.695 241.950 43.891 242.500 43.961 C 243.050 44.031 241.700 45.017 239.500 46.151 C 227.315 52.435 212.302 63.716 203.255 73.386 C 199.835 77.043 196.734 79.914 196.364 79.767 C 195.993 79.620 195.585 80.218 195.456 81.096 C 195.327 81.974 193.147 85.511 190.611 88.956 C 188.075 92.401 186.000 95.696 186.000 96.277 C 186.000 96.858 185.666 96.999 185.258 96.591 C 184.849 96.183 184.503 96.445 184.488 97.174 C 184.473 97.903 182.632 102.100 180.398 106.500 C 173.380 120.317 169.919 131.720 167.560 148.784 C 165.600 162.960 165.602 169.072 167.570 183.216 C 170.242 202.422 174.486 215.225 183.577 231.500 C 186.649 237.000 189.266 242.072 189.393 242.772 C 189.520 243.471 189.897 243.770 190.231 243.436 C 190.565 243.102 191.340 243.767 191.954 244.914 C 192.568 246.061 192.830 247.056 192.535 247.125 C 192.241 247.194 192.392 247.306 192.871 247.375 C 193.928 247.527 203.341 258.948 202.555 259.125 C 202.250 259.194 202.412 259.306 202.917 259.375 C 204.249 259.557 205.500 260.989 205.500 262.333 C 205.500 262.975 205.987 263.500 206.583 263.500 C 207.179 263.500 210.779 266.026 214.583 269.112 C 222.454 275.499 232.209 282.238 236.219 284.058 C 237.714 284.737 238.703 285.671 238.417 286.135 C 238.130 286.598 238.668 286.681 239.612 286.319 C 240.868 285.836 241.109 286.015 240.510 286.985 C 239.991 287.824 240.079 288.069 240.751 287.654 C 241.334 287.294 244.820 288.349 248.499 289.999 C 252.177 291.650 255.846 293.000 256.652 293.000 C 257.506 293.000 257.820 293.482 257.405 294.155 C 256.996 294.816 257.127 295.040 257.712 294.678 C 258.273 294.331 263.107 295.157 268.453 296.513 C 286.881 301.188 305.510 301.809 324.783 298.392 C 329.339 297.584 333.571 297.235 334.188 297.616 C 334.804 297.997 335.041 297.876 334.714 297.346 C 333.990 296.175 342.700 293.697 344.225 294.639 C 344.871 295.039 345.021 294.843 344.595 294.155 C 344.180 293.482 344.494 293.000 345.348 293.000 C 346.154 293.000 349.823 291.650 353.501 289.999 C 357.180 288.349 360.666 287.294 361.249 287.654 C 361.921 288.069 362.009 287.824 361.490 286.985 C 360.891 286.015 361.132 285.836 362.388 286.319 C 363.332 286.681 363.870 286.598 363.583 286.135 C 363.297 285.671 364.286 284.737 365.781 284.058 C 369.791 282.238 379.546 275.499 387.417 269.112 C 391.221 266.026 394.821 263.500 395.417 263.500 C 396.013 263.500 396.500 262.975 396.500 262.333 C 396.500 260.989 397.751 259.557 399.083 259.375 C 399.588 259.306 399.750 259.194 399.445 259.125 C 398.659 258.948 408.072 247.527 409.129 247.375 C 409.608 247.306 409.759 247.194 409.465 247.125 C 409.170 247.056 409.432 246.061 410.046 244.914 C 410.660 243.767 411.435 243.102 411.769 243.436 C 412.103 243.770 412.480 243.471 412.607 242.772 C 412.734 242.072 415.351 237.000 418.423 231.500 C 427.014 216.119 432.017 201.383 434.041 185.500 C 434.671 180.550 435.406 175.825 435.674 175.000 C 436.308 173.052 436.308 158.948 435.674 157.000 C 435.406 156.175 434.663 151.450 434.021 146.500 C 432.679 136.131 430.051 125.965 426.361 116.866 C 424.941 113.365 423.642 109.600 423.473 108.500 C 423.305 107.400 423.121 106.950 423.065 107.500 C 423.009 108.050 421.630 106.081 420.001 103.124 C 418.371 100.168 417.323 97.286 417.673 96.720 C 418.023 96.154 417.872 95.961 417.338 96.291 C 416.804 96.621 415.536 95.453 414.520 93.696 C 413.504 91.938 411.357 88.809 409.747 86.743 C 408.138 84.677 406.706 82.202 406.565 81.243 C 406.424 80.284 406.007 79.620 405.636 79.767 C 405.266 79.914 402.165 77.043 398.745 73.386 C 389.636 63.649 373.196 51.316 362.793 46.416 C 360.754 45.456 359.361 44.225 359.697 43.681 C 360.034 43.136 359.846 42.977 359.280 43.327 C 358.713 43.677 355.606 42.866 352.375 41.524 C 349.144 40.182 346.950 39.029 347.500 38.961 C 348.050 38.893 347.375 38.711 346.000 38.557 C 344.625 38.403 339.214 37.093 333.976 35.646 C 325.965 33.434 304.609 30.692 299.000 31.156 C 298.175 31.224 293.193 31.637 287.929 32.073 "/></g>
</svg>
